<?xml version="1.0" encoding="UTF-8" standalone="no"?>
<!-- Created with Inkscape (http://www.inkscape.org/) -->

<svg
   width="51.68924mm"
   height="56.50528mm"
   viewBox="0 0 51.68924 56.50528"
   version="1.1"
   id="svg5"
   xmlns="http://www.w3.org/2000/svg"
   xmlns:svg="http://www.w3.org/2000/svg">
  <defs
     id="defs2" />
  <g
     id="layer1"
     transform="translate(-75.235918,-113.41194)">
    <g
       id="g13142">
      <path
         id="path358"
         style="fill:#278e46;fill-opacity:1;stroke-width:0.154075"
         d="m 101.08034,119.10164 a 25.407975,25.407975 0 0 0 -25.407782,25.40779 25.407975,25.407975 0 0 0 25.407782,25.40778 25.407975,25.407975 0 0 0 25.40818,-25.40778 25.407975,25.407975 0 0 0 -25.40818,-25.40779 z m 0,1.61319 a 23.794507,23.794507 0 0 1 23.79459,23.7946 23.794507,23.794507 0 0 1 -23.79459,23.79459 23.794507,23.794507 0 0 1 -23.794603,-23.79459 23.794507,23.794507 0 0 1 23.794603,-23.7946 z" />
      <path
         id="rect4996"
         style="fill:#278e46;fill-opacity:1;stroke-width:0.185423"
         d="m 111.38442,145.33221 -0.88212,0.94723 h 4.19974 c 1.17745,0 2.12545,0.94801 2.12545,2.12546 v 7.22126 c 0,1.17743 -0.948,2.12545 -2.12545,2.12545 H 99.880208 95.684599 92.658944 c -1.177452,0 -2.125452,-0.94802 -2.125452,-2.12545 v -2.95279 -4.26847 -2.72542 c -0.261448,0.16291 -0.487081,0.3777 -0.664042,0.6289 l -0.02274,11.3838 c 0.413165,0.60836 1.110818,1.00666 1.904794,1.00666 H 115.61 c 1.27441,0 2.30012,-1.02572 2.30012,-2.30012 v -8.76587 c 0,-1.27438 -1.02571,-2.30064 -2.30012,-2.30064 z" />
      <path
         id="rect4990"
         style="fill:#278e46;fill-opacity:1;stroke-width:0.185423"
         d="m 169.48187,15.317154 c -0.41579,0.415792 -0.67235,0.991054 -0.67235,1.628256 v 7.202914 l 0.94677,0.946771 v -7.242378 c 0,-0.588726 0.2374,-1.120222 0.62156,-1.504383 0.38416,-0.38416 0.91529,-0.621193 1.50402,-0.621193 l 7.22155,3.66e-4 c 1.17745,0 2.12521,0.947756 2.12521,2.12521 V 36.56743 l 0.9475,0.947502 V 16.94541 c 0,-1.274405 -1.0262,-2.300606 -2.30061,-2.300606 h -8.76539 c -0.63721,0 -1.21247,0.256558 -1.62826,0.67235 z m -0.67235,25.055265 V 40.8036 c 0,1.274406 1.02584,2.300241 2.30024,2.300241 h 0.43118 z m 11.04627,2.731787 h 0.0197 c 1.27441,0 2.30061,-1.0262 2.30061,-2.300606 v -0.01973 z"
         transform="rotate(45)" />
      <path
         id="rect3153"
         style="fill:#278e46;fill-opacity:1;stroke-width:0.185423"
         d="m 92.171635,130.2799 c -1.274407,0 -2.300118,1.02571 -2.300118,2.30012 v 23.85849 c 0,1.27441 1.025711,2.30064 2.300118,2.30064 h 8.765875 c 1.2744,0 2.30063,-1.02623 2.30063,-2.30064 v -23.85849 c 0,-1.27441 -1.02623,-2.30012 -2.30063,-2.30012 z m 0.772563,1.08262 h 7.221262 c 1.17746,0 2.12545,0.94748 2.12545,2.12494 v 22.04362 c 0,1.17745 -0.94799,2.12545 -2.12545,2.12545 h -7.221262 c -1.177455,0 -2.125452,-0.948 -2.125452,-2.12545 v -22.04362 c 0,-1.17746 0.947997,-2.12494 2.125452,-2.12494 z" />
      <g
         id="g6185">
        <rect
           style="opacity:1;fill:#278e46;fill-opacity:1;stroke-width:0.187102"
           id="rect6041"
           width="1.3675416"
           height="4.1163902"
           x="100.39677"
           y="119.19732"
           ry="0" />
        <rect
           style="opacity:1;fill:#278e46;fill-opacity:1;stroke-width:0.187102"
           id="rect6181"
           width="1.3675416"
           height="4.1163902"
           x="100.39677"
           y="165.767"
           ry="0" />
      </g>
      <g
         id="g6191"
         transform="rotate(90,101.08054,144.54035)">
        <rect
           style="opacity:1;fill:#278e46;fill-opacity:1;stroke-width:0.187102"
           id="rect6187"
           width="1.3675416"
           height="4.1163902"
           x="100.39677"
           y="119.19732"
           ry="0" />
        <rect
           style="opacity:1;fill:#278e46;fill-opacity:1;stroke-width:0.187102"
           id="rect6189"
           width="1.3675416"
           height="4.1163902"
           x="100.39677"
           y="165.767"
           ry="0" />
      </g>
      <g
         id="g6197"
         transform="rotate(45,101.08054,144.54035)">
        <rect
           style="opacity:1;fill:#278e46;fill-opacity:1;stroke-width:0.187102"
           id="rect6193"
           width="1.3675416"
           height="4.1163902"
           x="100.39677"
           y="119.19732"
           ry="0" />
        <rect
           style="opacity:1;fill:#278e46;fill-opacity:1;stroke-width:0.187102"
           id="rect6195"
           width="1.3675416"
           height="4.1163902"
           x="100.39677"
           y="165.767"
           ry="0" />
      </g>
      <g
         id="g6203"
         transform="rotate(-45,101.08053,144.54035)">
        <rect
           style="opacity:1;fill:#278e46;fill-opacity:1;stroke-width:0.187102"
           id="rect6199"
           width="1.3675416"
           height="4.1163902"
           x="100.39677"
           y="119.19732"
           ry="0" />
        <rect
           style="opacity:1;fill:#278e46;fill-opacity:1;stroke-width:0.187102"
           id="rect6201"
           width="1.3675416"
           height="4.1163902"
           x="100.39677"
           y="165.767"
           ry="0" />
      </g>
      <rect
         style="fill:#278e46;fill-opacity:1;stroke-width:0.184614"
         id="rect6943"
         width="1.855891"
         height="6.5020514"
         x="100.1526"
         y="113.41194" />
      <path
         id="path9353"
         style="fill:#278e46;fill-opacity:1;stroke-width:0.264583"
         d="m 118.65279,117.31773 a 8.2720613,8.4019661 0 0 0 -6.60941,3.35949 25.407975,25.407975 0 0 1 12.35067,11.07994 8.2720613,8.4019661 0 0 0 2.53111,-6.03736 8.2720613,8.4019661 0 0 0 -8.27237,-8.40207 z" />
      <path
         id="path9367"
         style="fill:#278e46;fill-opacity:1;stroke-width:0.264583"
         d="m 83.508287,117.31773 a 8.2720613,8.4019661 0 0 1 6.60941,3.35949 25.407975,25.407975 0 0 0 -12.35067,11.07994 8.2720613,8.4019661 0 0 1 -2.53111,-6.03736 8.2720613,8.4019661 0 0 1 8.27237,-8.40207 z" />
      <path
         style="fill:#278e46;fill-opacity:1;stroke-width:0.264583"
         d="m 100.39677,119.19732 c -0.24417,-2.48788 -2.957816,-3.21154 -5.610417,-3.31323 -2.6526,-0.1017 -5.244158,0.41858 -5.244158,0.41858 0,0 2.033586,2.01304 4.835279,2.29305 z"
         id="path11551" />
      <path
         style="fill:#278e46;fill-opacity:1;stroke-width:0.264583"
         d="m 101.7643,119.98938 c 0.24417,-2.48788 2.95781,-3.21154 5.61041,-3.31323 2.6526,-0.1017 5.24416,0.41858 5.24416,0.41858 0,0 -2.03359,2.01304 -4.83528,2.29305 z"
         id="path11553" />
    </g>
  </g>
</svg>
